<?xml version="1.0" encoding="iso-8859-1"?>
<!-- Generator: Adobe Illustrator 19.0.0, SVG Export Plug-In . SVG Version: 6.00 Build 0)  -->
<svg version="1.1" id="Layer_1" xmlns="http://www.w3.org/2000/svg" xmlns:xlink="http://www.w3.org/1999/xlink" x="0px" y="0px"
	 viewBox="0 0 282.462 282.462" style="enable-background:new 0 0 282.462 282.462;" xml:space="preserve">
<g>
	<g>
		<g>
			<path style="fill:#fc5c3f" d="M282.094,108.197l-41.952-77.828c-0.54-0.996-1.576-1.62-2.708-1.62h-0.008L40.378,29.377
				c-1.156,0.004-2.216,0.656-2.74,1.692L0.33,104.917c-0.576,1.144-0.388,2.528,0.484,3.472l132.908,144.332
				c0.564,0.608,1.352,0.968,2.188,0.988c0.024,0.004,0.052,0.004,0.076,0.004c0.804,0,1.58-0.32,2.156-0.888l143.4-140.976
				C282.518,110.893,282.742,109.401,282.094,108.197z M259.542,111.889l13.112,0.072l-130.504,128.3l36.264-97.244
				c0.416-1.108-0.152-2.352-1.268-2.768c-1.112-0.424-2.352,0.152-2.768,1.268l-38.34,102.8c-0.032,0.008-0.056,0.012-0.084,0.02
				c-8.044-22.04-15.144-44.716-22.024-66.7c-4.768-15.224-9.692-30.964-14.884-46.348c-0.376-1.124-1.604-1.724-2.728-1.348
				c-1.124,0.376-1.732,1.6-1.352,2.728c5.176,15.332,10.096,31.052,14.852,46.252c6.204,19.82,12.628,40.172,19.728,60.176
				l-119.2-129.448c13.408,0.192,26.812,0.372,40.216,0.508h0.02c1.176,0,2.14-0.952,2.152-2.132
				c0.012-1.188-0.94-2.164-2.132-2.176c-14.524-0.148-29.048-0.336-43.576-0.552l35.256-69.772l94.052-0.3l-48.28,67.368
				l-19.88-30.788c-0.648-1-1.98-1.28-2.98-0.64c-0.996,0.644-1.284,1.98-0.64,2.98l20.668,32.004l-20.992-0.168h-0.016
				c-1.184,0-2.144,0.956-2.152,2.136c-0.008,1.188,0.944,2.16,2.136,2.172l21.804,0.176h0.016c1.108,0,1.996-0.852,2.112-1.932
				c0.628-0.052,1.212-0.34,1.58-0.856l49.352-68.872l12.136,17.52c0.684,0.984,2.024,1.22,2.996,0.548
				c0.98-0.68,1.22-2.024,0.548-2.996L141.81,35.209l91.516-0.292l-44.916,67.556l-27.5-39.688c-0.672-0.98-2.02-1.224-2.992-0.54
				c-0.98,0.672-1.22,2.016-0.54,2.992l29.3,42.296c0.088,0.128,0.232,0.2,0.348,0.304c-0.068,0.112-0.156,0.2-0.204,0.324
				l-9.652,25.872c-0.416,1.116,0.152,2.356,1.264,2.772c0.248,0.092,0.504,0.136,0.752,0.136c0.872,0,1.696-0.536,2.02-1.4
				l9.208-24.684l37.356,0.044h0.004c1.188,0,2.152-0.96,2.152-2.148c0-1.192-0.964-2.16-2.148-2.16l-36.912-0.044l46.036-69.224
				l36.912,68.488l-14.24-0.08h-0.016c-1.692,0-3.068,1.368-3.076,3.06C256.474,110.493,257.842,111.877,259.542,111.889z"/>
			<path style="fill:#fc5c3f" d="M252.478,106.621l-13.728-0.012c-1.188,0-2.152,0.964-2.152,2.152s0.96,2.152,2.152,2.152l13.728,0.012
				c1.188,0,2.152-0.964,2.152-2.152C254.63,107.589,253.67,106.621,252.478,106.621z"/>
			<path style="fill:#fc5c3f" d="M181.434,110.841c1.188,0,2.148-0.96,2.152-2.148c0-1.192-0.964-2.152-2.148-2.16
				c-29.076-0.052-58.152-0.14-87.224-0.328h-0.012c-1.184,0-2.144,0.956-2.152,2.14c-0.016,1.192,0.944,2.164,2.136,2.172
				c29.08,0.184,58.16,0.276,87.244,0.324H181.434z"/>
			<path style="fill:#fc5c3f" d="M62.418,62.889l-10.08-15.608c-0.644-1-1.984-1.28-2.98-0.64c-0.996,0.644-1.284,1.98-0.64,2.98l10.08,15.608
				c0.416,0.636,1.108,0.984,1.812,0.984c0.4,0,0.804-0.108,1.168-0.344C62.774,65.221,63.062,63.889,62.418,62.889z"/>
			<path style="fill:#fc5c3f" d="M241.494,129.417l-9.672,9.532c-0.844,0.836-0.856,2.2-0.02,3.048c0.432,0.424,0.984,0.64,1.54,0.64
				c0.548,0,1.096-0.208,1.512-0.62l9.668-9.532c0.844-0.836,0.856-2.2,0.02-3.048C243.698,128.593,242.338,128.585,241.494,129.417
				z"/>
			<path style="fill:#fc5c3f" d="M225.022,145.817l-40.64,40.056c-0.844,0.836-0.856,2.2-0.02,3.048c0.428,0.424,0.984,0.64,1.54,0.64
				c0.548,0,1.096-0.208,1.512-0.62l40.636-40.056c0.844-0.836,0.856-2.2,0.02-3.048
				C227.226,144.993,225.866,144.985,225.022,145.817z"/>
			<path style="fill:#fc5c3f" d="M258.374,87.101l-9.564-16.088c-0.608-1.024-1.936-1.352-2.952-0.756c-1.024,0.612-1.356,1.928-0.752,2.952l9.564,16.096
				c0.4,0.676,1.12,1.052,1.852,1.052c0.376,0,0.752-0.1,1.104-0.3C258.646,89.445,258.982,88.129,258.374,87.101z"/>
			<path style="fill:#fc5c3f" d="M241.162,66.201c0.392,0.704,1.128,1.1,1.88,1.1c0.36,0,0.72-0.088,1.056-0.276c1.032-0.584,1.404-1.892,0.82-2.932
				l-6.924-12.312c-0.588-1.04-1.9-1.392-2.932-0.82c-1.04,0.584-1.404,1.9-0.824,2.932L241.162,66.201z"/>
		</g>
	</g>
</g>
<g>
</g>
<g>
</g>
<g>
</g>
<g>
</g>
<g>
</g>
<g>
</g>
<g>
</g>
<g>
</g>
<g>
</g>
<g>
</g>
<g>
</g>
<g>
</g>
<g>
</g>
<g>
</g>
<g>
</g>
</svg>
